<svg xmlns="http://www.w3.org/2000/svg" xmlns:xlink="http://www.w3.org/1999/xlink" width="500" zoomAndPan="magnify" viewBox="0 0 375 374.999991" height="500" preserveAspectRatio="xMidYMid meet" version="1.0"><defs><g/><clipPath id="1ad48fc41a"><path d="M 99.496094 106.652344 L 275.363281 106.652344 L 275.363281 216.144531 L 99.496094 216.144531 Z M 99.496094 106.652344 " clip-rule="nonzero"/></clipPath></defs><rect x="-37.5" width="450" fill="#ffffff" y="-37.499999" height="449.999989" fill-opacity="1"/><rect x="-37.5" width="450" fill="#ffffff" y="-37.499999" height="449.999989" fill-opacity="1"/><rect x="-37.5" width="450" fill="#bad7e9" y="-37.499999" height="449.999989" fill-opacity="1"/><g clip-path="url(#1ad48fc41a)"><path fill="#2b3467" d="M 144.984375 187.625 C 144.792969 187.289062 144.472656 187.085938 144.203125 186.851562 C 141.667969 184.679688 139.308594 182.347656 137.121094 179.820312 C 134.039062 176.265625 131.457031 172.371094 129.175781 168.273438 C 127.535156 165.332031 126.101562 162.277344 124.972656 159.085938 C 124.574219 157.957031 124.113281 156.851562 123.703125 155.726562 C 122.789062 153.21875 122.195312 150.621094 121.6875 148.007812 C 121.1875 145.429688 120.996094 142.808594 121.085938 140.171875 C 121.09375 140.023438 121.128906 139.878906 121.152344 139.710938 C 121.589844 139.667969 121.730469 140.03125 121.9375 140.25 C 122.585938 140.925781 123.199219 141.632812 123.832031 142.324219 C 124.925781 143.523438 126.273438 144.417969 127.589844 145.332031 C 130.390625 147.273438 133.34375 148.957031 136.421875 150.421875 C 138.171875 151.257812 139.886719 152.175781 141.640625 153.011719 C 143.628906 153.960938 145.640625 154.851562 147.640625 155.773438 C 151.101562 157.363281 154.570312 158.933594 158.015625 160.554688 C 160.347656 161.652344 162.648438 162.816406 164.964844 163.949219 C 165.191406 164.058594 165.425781 164.144531 165.792969 164.304688 C 165.710938 164.003906 165.675781 163.832031 165.617188 163.667969 C 164.9375 161.753906 164.457031 159.792969 164.183594 157.777344 C 164.101562 157.148438 164.035156 156.511719 164.023438 155.875 C 164 154.226562 164.03125 152.578125 164 150.925781 C 163.957031 148.882812 164.355469 146.898438 164.769531 144.917969 C 165.667969 140.617188 167.417969 136.652344 169.609375 132.875 C 170.417969 131.484375 171.175781 130.0625 172.003906 128.679688 C 173.136719 126.785156 174.332031 124.925781 175.476562 123.039062 C 177.421875 119.828125 179.738281 116.882812 181.878906 113.8125 C 183.121094 112.035156 184.515625 110.363281 185.84375 108.644531 C 186.339844 107.996094 186.835938 107.347656 187.367188 106.65625 C 187.519531 106.773438 187.648438 106.84375 187.730469 106.949219 C 189.191406 108.800781 190.671875 110.640625 192.097656 112.519531 C 193.273438 114.066406 194.378906 115.671875 195.53125 117.242188 C 197.457031 119.871094 199.171875 122.640625 200.929688 125.382812 C 201.976562 127.019531 202.910156 128.734375 203.878906 130.421875 C 204.792969 132.015625 205.738281 133.585938 206.574219 135.21875 C 208.355469 138.703125 209.695312 142.34375 210.410156 146.214844 C 210.917969 148.96875 210.894531 151.730469 210.914062 154.507812 C 210.925781 156.429688 210.707031 158.324219 210.289062 160.195312 C 210.039062 161.324219 209.652344 162.425781 209.320312 163.539062 C 209.261719 163.742188 209.195312 163.945312 209.085938 164.292969 C 209.386719 164.183594 209.554688 164.144531 209.707031 164.070312 C 212.058594 162.921875 214.398438 161.753906 216.753906 160.621094 C 218.371094 159.84375 220.003906 159.109375 221.632812 158.363281 C 224.046875 157.261719 226.453125 156.152344 228.871094 155.070312 C 232.691406 153.363281 236.425781 151.476562 240.15625 149.59375 C 243.539062 147.890625 246.761719 145.917969 249.710938 143.542969 C 250.839844 142.636719 251.777344 141.488281 252.792969 140.449219 C 253.070312 140.167969 253.261719 139.785156 253.65625 139.644531 C 253.726562 139.742188 253.804688 139.796875 253.808594 139.855469 C 253.828125 141.167969 253.910156 142.476562 253.734375 143.785156 C 253.621094 144.601562 253.558594 145.425781 253.457031 146.242188 C 253.058594 149.453125 252.25 152.570312 251.21875 155.628906 C 250.21875 158.613281 249.03125 161.523438 247.703125 164.378906 C 245.339844 169.46875 242.351562 174.171875 238.863281 178.546875 C 237.140625 180.710938 235.265625 182.757812 233.191406 184.605469 C 232.296875 185.402344 231.402344 186.195312 230.527344 187.011719 C 230.316406 187.203125 230.007812 187.324219 229.929688 187.707031 C 230.164062 187.707031 230.382812 187.75 230.578125 187.703125 C 233.542969 187.019531 236.5625 186.832031 239.578125 186.640625 C 243.886719 186.371094 248.164062 186.722656 252.4375 187.171875 C 253.960938 187.335938 255.484375 187.484375 256.992188 187.746094 C 260.78125 188.402344 264.5625 189.136719 268.246094 190.253906 C 270.421875 190.910156 272.539062 191.765625 274.679688 192.542969 C 274.917969 192.628906 275.136719 192.769531 275.332031 192.871094 C 275.453125 193.292969 275.195312 193.496094 274.988281 193.6875 C 274.132812 194.472656 273.296875 195.28125 272.390625 196.003906 C 270.34375 197.636719 268.320312 199.308594 266.179688 200.808594 C 263.917969 202.394531 261.53125 203.808594 259.199219 205.289062 C 257.082031 206.632812 254.835938 207.738281 252.601562 208.867188 C 250.398438 209.976562 248.089844 210.847656 245.765625 211.664062 C 245.484375 211.761719 245.191406 211.839844 244.917969 211.957031 C 243.308594 212.660156 241.640625 213.203125 239.960938 213.703125 C 238.390625 214.171875 236.808594 214.613281 235.203125 214.945312 C 233.453125 215.304688 231.671875 215.546875 229.902344 215.808594 C 229.015625 215.9375 228.121094 216 227.226562 216.089844 C 226.902344 216.121094 226.574219 216.167969 226.285156 216.050781 C 226.195312 215.761719 226.386719 215.664062 226.496094 215.527344 C 226.875 215.0625 227.3125 214.640625 227.628906 214.136719 C 228.9375 212.035156 229.015625 209.824219 228.027344 207.582031 C 227.707031 206.855469 227.144531 206.285156 226.5 205.8125 C 226.265625 205.640625 226.035156 205.464844 225.730469 205.230469 C 225.945312 205.085938 226.078125 204.964844 226.234375 204.898438 C 228.476562 203.929688 229.996094 202.242188 231 200.054688 C 231.671875 198.589844 231.761719 197.019531 231.671875 195.433594 C 231.667969 195.292969 231.480469 195.074219 231.351562 195.054688 C 231.21875 195.03125 230.980469 195.167969 230.914062 195.300781 C 230.746094 195.628906 230.648438 195.992188 230.527344 196.347656 C 230.296875 197.019531 230.0625 197.6875 229.4375 198.242188 C 229.296875 197.964844 229.1875 197.710938 229.050781 197.472656 C 228.699219 196.851562 228.160156 196.589844 227.457031 196.664062 C 226.914062 196.722656 226.382812 196.933594 225.8125 196.71875 C 225.675781 196.664062 225.402344 196.855469 225.242188 196.996094 C 224.652344 197.511719 224.066406 198.039062 223.507812 198.585938 C 222.730469 199.351562 221.796875 199.757812 220.753906 199.996094 C 220.003906 200.171875 219.34375 200.019531 218.746094 199.578125 C 218.382812 199.3125 218.039062 199.015625 217.722656 198.703125 C 215.898438 196.925781 214.078125 195.15625 212.589844 193.066406 C 211.257812 191.195312 209.597656 189.609375 207.921875 188.0625 C 207.039062 187.246094 206.546875 186.308594 206.34375 185.175781 C 205.96875 183.035156 205.625 180.894531 205.269531 178.746094 C 205.1875 178.230469 205.105469 177.710938 205.058594 177.1875 C 204.882812 175.363281 204.742188 173.53125 204.550781 171.710938 C 204.445312 170.667969 204.335938 169.617188 204.09375 168.601562 C 203.796875 167.375 203.046875 166.457031 201.820312 166.015625 C 200.941406 165.699219 200.0625 165.382812 199.179688 165.074219 C 197.269531 164.410156 195.46875 163.503906 193.691406 162.550781 C 192.824219 162.082031 192.082031 161.433594 191.546875 160.605469 C 190.925781 159.644531 190.679688 158.546875 190.679688 157.402344 C 190.679688 157.003906 190.882812 156.683594 191.160156 156.417969 C 191.433594 156.160156 191.703125 155.902344 191.992188 155.664062 C 194.46875 153.613281 195.84375 150.925781 196.421875 147.808594 C 196.890625 145.28125 196.976562 142.734375 196.289062 140.226562 C 195.355469 136.820312 192.113281 134.183594 188.636719 133.65625 C 183.679688 132.898438 179.339844 136.546875 178.464844 140.820312 C 177.664062 144.726562 178.074219 148.519531 179.964844 152.074219 C 180.632812 153.332031 181.460938 154.496094 182.605469 155.390625 C 182.957031 155.667969 183.257812 156.007812 183.605469 156.292969 C 184.082031 156.683594 184.253906 157.179688 184.21875 157.78125 C 184.085938 159.953125 183.035156 161.539062 181.167969 162.574219 C 178.910156 163.828125 176.546875 164.855469 174.097656 165.675781 C 173.777344 165.78125 173.457031 165.878906 173.140625 165.992188 C 171.789062 166.484375 171.039062 167.488281 170.742188 168.867188 C 170.453125 170.226562 170.363281 171.605469 170.257812 172.988281 C 169.949219 177.066406 169.363281 181.105469 168.574219 185.113281 C 168.503906 185.480469 168.371094 185.835938 168.273438 186.195312 C 168.117188 186.792969 167.789062 187.273438 167.34375 187.699219 C 166.394531 188.601562 165.449219 189.515625 164.558594 190.476562 C 163.695312 191.40625 162.859375 192.371094 162.085938 193.375 C 161.285156 194.417969 160.488281 195.453125 159.539062 196.363281 C 158.4375 197.425781 157.289062 198.445312 156.214844 199.542969 C 155.570312 200.203125 154.832031 200.257812 154.054688 200.046875 C 153.003906 199.757812 152.023438 199.308594 151.234375 198.503906 C 150.742188 197.992188 150.207031 197.523438 149.679688 197.046875 C 149.386719 196.785156 149.054688 196.671875 148.644531 196.808594 C 148.453125 196.871094 148.210938 196.832031 148.007812 196.785156 C 146.792969 196.503906 146.390625 196.683594 145.746094 197.820312 C 145.695312 197.914062 145.613281 197.992188 145.523438 198.109375 C 145.070312 197.996094 144.878906 197.621094 144.710938 197.269531 C 144.53125 196.898438 144.425781 196.496094 144.292969 196.105469 C 144.210938 195.859375 144.148438 195.601562 144.042969 195.363281 C 143.949219 195.148438 143.78125 194.976562 143.519531 195.035156 C 143.277344 195.09375 143.175781 195.308594 143.152344 195.539062 C 143.128906 195.765625 143.125 195.988281 143.132812 196.214844 C 143.210938 198.449219 143.839844 200.488281 145.234375 202.265625 C 146.035156 203.289062 147.035156 204.054688 148.164062 204.660156 C 148.457031 204.820312 148.761719 204.957031 149.152344 205.148438 C 148.960938 205.335938 148.839844 205.5 148.675781 205.609375 C 147.011719 206.726562 146.316406 208.328125 146.230469 210.289062 C 146.144531 212.296875 146.921875 213.929688 148.230469 215.371094 C 148.355469 215.507812 148.488281 215.640625 148.613281 215.777344 C 148.636719 215.804688 148.644531 215.847656 148.660156 215.882812 C 148.546875 216.246094 148.234375 216.132812 148.007812 216.109375 C 146.375 215.941406 144.738281 215.777344 143.109375 215.5625 C 141.410156 215.335938 139.71875 215.023438 138.066406 214.546875 C 135.347656 213.765625 132.585938 213.109375 129.980469 211.960938 C 129.539062 211.765625 129.058594 211.65625 128.605469 211.480469 C 126.902344 210.8125 125.183594 210.179688 123.511719 209.441406 C 122.148438 208.84375 120.835938 208.117188 119.507812 207.429688 C 116.554688 205.898438 113.746094 204.121094 110.953125 202.3125 C 107.203125 199.890625 103.738281 197.109375 100.40625 194.148438 C 100.050781 193.832031 99.621094 193.558594 99.496094 193.039062 C 99.71875 192.617188 100.160156 192.558594 100.523438 192.417969 C 103.628906 191.222656 106.742188 190.054688 110.003906 189.371094 C 112.742188 188.792969 115.480469 188.207031 118.234375 187.699219 C 119.628906 187.441406 121.046875 187.332031 122.457031 187.171875 C 125.796875 186.796875 129.152344 186.496094 132.511719 186.554688 C 136.433594 186.625 140.351562 186.828125 144.203125 187.679688 C 144.386719 187.71875 144.570312 187.738281 144.757812 187.746094 C 144.816406 187.746094 144.875 187.683594 144.984375 187.625 Z M 161.78125 182.3125 C 161.78125 182.375 161.777344 182.433594 161.777344 182.496094 C 161.816406 182.480469 161.855469 182.464844 161.894531 182.449219 C 161.847656 182.410156 161.800781 182.371094 161.757812 182.332031 C 161.757812 182.222656 161.792969 182.097656 161.757812 182 C 160.992188 180.046875 160.226562 178.097656 159.097656 176.316406 C 157.195312 173.316406 154.871094 170.691406 152.167969 168.414062 C 147.960938 164.867188 143.324219 162.042969 138.214844 160.007812 C 137.910156 159.882812 137.617188 159.742188 137.121094 159.738281 C 137.472656 159.984375 137.703125 160.15625 137.941406 160.316406 C 139.425781 161.324219 140.929688 162.304688 142.394531 163.335938 C 145.050781 165.214844 147.609375 167.21875 150.144531 169.261719 C 152.335938 171.03125 154.335938 173.003906 156.164062 175.128906 C 157.695312 176.914062 159.027344 178.875 160.441406 180.757812 C 160.777344 181.207031 161.085938 181.679688 161.425781 182.125 C 161.5 182.222656 161.660156 182.25 161.78125 182.3125 Z M 237.207031 160 C 237.183594 159.933594 237.160156 159.867188 237.136719 159.804688 C 236.863281 159.886719 236.582031 159.953125 236.316406 160.058594 C 231.578125 161.984375 227.222656 164.566406 223.25 167.796875 C 221.007812 169.621094 218.992188 171.664062 217.214844 173.957031 C 215.335938 176.378906 214 179.085938 212.929688 181.9375 C 212.878906 182.066406 212.890625 182.214844 212.851562 182.554688 C 213.480469 181.914062 213.84375 181.316406 214.242188 180.746094 C 215.695312 178.652344 217.171875 176.574219 218.886719 174.6875 C 220.875 172.5 223.007812 170.460938 225.332031 168.613281 C 228.410156 166.167969 231.527344 163.792969 234.785156 161.597656 C 235.585938 161.054688 236.402344 160.53125 237.207031 160 " fill-opacity="1" fill-rule="evenodd"/></g><path fill="#2b3467" d="M 175.328125 181.492188 C 175.554688 181.910156 175.710938 182.15625 175.828125 182.417969 C 176.773438 184.550781 177.453125 186.765625 177.796875 189.074219 C 178.074219 190.949219 177.964844 192.808594 177.324219 194.617188 C 177.023438 195.464844 176.78125 196.332031 176.46875 197.171875 C 176.257812 197.730469 176.015625 198.289062 175.710938 198.800781 C 174.742188 200.445312 173.738281 202.070312 172.746094 203.699219 C 172.667969 203.824219 172.582031 203.945312 172.5 204.070312 C 172.320312 204.351562 172.070312 204.46875 171.738281 204.429688 C 171.367188 204.390625 170.996094 204.359375 170.625 204.320312 C 168.882812 204.128906 167.140625 203.929688 165.386719 203.910156 C 164.230469 203.898438 163.070312 203.78125 161.917969 203.816406 C 160.242188 203.867188 158.570312 204.007812 156.894531 204.128906 C 156.53125 204.152344 156.175781 204.21875 155.84375 204.15625 C 155.738281 203.902344 155.890625 203.816406 156.003906 203.738281 C 156.371094 203.480469 156.734375 203.214844 157.121094 202.996094 C 158.953125 201.976562 160.675781 200.792969 162.40625 199.617188 C 163.210938 199.074219 164.039062 198.5625 164.886719 198.089844 C 166.492188 197.195312 167.960938 196.125 169.367188 194.9375 C 171 193.554688 172.03125 191.84375 172.640625 189.820312 C 173.417969 187.238281 174.234375 184.671875 175.042969 182.101562 C 175.085938 181.960938 175.164062 181.832031 175.328125 181.492188 " fill-opacity="1" fill-rule="evenodd"/><path fill="#2b3467" d="M 199.617188 181.488281 C 199.808594 182.035156 199.933594 182.378906 200.042969 182.726562 C 200.507812 184.1875 200.972656 185.648438 201.429688 187.109375 C 201.722656 188.039062 202.03125 188.960938 202.28125 189.902344 C 202.828125 191.960938 203.921875 193.65625 205.558594 195.003906 C 206.972656 196.171875 208.472656 197.203125 210.058594 198.128906 C 211.796875 199.148438 213.453125 200.304688 215.152344 201.390625 C 215.808594 201.8125 216.488281 202.203125 217.152344 202.617188 C 217.753906 202.992188 218.347656 203.378906 218.941406 203.769531 C 219.023438 203.824219 219.078125 203.925781 219.144531 204.007812 C 219 204.292969 218.746094 204.191406 218.554688 204.179688 C 217.253906 204.089844 215.953125 203.984375 214.65625 203.882812 C 213.089844 203.761719 211.527344 203.761719 209.960938 203.882812 C 208.476562 204 206.984375 204.082031 205.5 204.191406 C 204.832031 204.238281 204.15625 204.28125 203.5 204.398438 C 202.898438 204.511719 202.511719 204.335938 202.207031 203.804688 C 201.703125 202.929688 201.15625 202.082031 200.632812 201.21875 C 200.496094 200.996094 200.382812 200.753906 200.234375 200.542969 C 198.6875 198.367188 197.90625 195.871094 197.214844 193.335938 C 196.867188 192.050781 196.875 190.726562 197.046875 189.433594 C 197.394531 186.859375 198.15625 184.394531 199.242188 182.03125 C 199.300781 181.902344 199.402344 181.792969 199.617188 181.488281 " fill-opacity="1" fill-rule="evenodd"/><path fill="#2b3467" d="M 225.714844 201.210938 C 225.28125 201.238281 224.945312 200.898438 225.019531 200.558594 C 225.207031 199.65625 225.675781 198.914062 226.441406 198.390625 C 226.664062 198.238281 226.96875 198.261719 227.160156 198.464844 C 227.296875 198.609375 227.4375 198.871094 227.398438 199.039062 C 227.21875 199.808594 226.855469 200.492188 226.214844 200.988281 C 226.050781 201.117188 225.820312 201.164062 225.714844 201.210938 " fill-opacity="1" fill-rule="evenodd"/><path fill="#2b3467" d="M 149.234375 201.265625 C 148.972656 201.117188 148.671875 201.023438 148.480469 200.828125 C 148.035156 200.378906 147.707031 199.839844 147.53125 199.21875 C 147.4375 198.878906 147.527344 198.597656 147.773438 198.4375 C 148.023438 198.277344 148.335938 198.289062 148.59375 198.488281 C 149.195312 198.960938 149.566406 199.597656 149.816406 200.304688 C 149.90625 200.566406 149.839844 200.828125 149.640625 201.023438 C 149.542969 201.121094 149.402344 201.167969 149.234375 201.265625 " fill-opacity="1" fill-rule="evenodd"/><path fill="#2b3467" d="M 161.757812 182.332031 C 161.800781 182.371094 161.847656 182.410156 161.894531 182.449219 C 161.855469 182.464844 161.816406 182.480469 161.777344 182.496094 C 161.777344 182.433594 161.78125 182.375 161.78125 182.3125 C 161.78125 182.3125 161.757812 182.332031 161.757812 182.332031 " fill-opacity="1" fill-rule="evenodd"/><g fill="#2b3467" fill-opacity="1"><g transform="translate(114.297195, 243.710257)"><g><path d="M 13.40625 -12.28125 C 13.40625 -10.675781 12.816406 -9.457031 11.640625 -8.625 C 10.460938 -7.800781 8.863281 -7.390625 6.84375 -7.390625 L 4.6875 -7.390625 L 4.6875 0 L 2.25 0 L 2.25 -16.59375 L 7.640625 -16.59375 C 9.328125 -16.59375 10.707031 -16.207031 11.78125 -15.4375 C 12.863281 -14.664062 13.40625 -13.613281 13.40625 -12.28125 Z M 4.6875 -8.125 L 6.921875 -8.125 C 7.703125 -8.125 8.375 -8.269531 8.9375 -8.5625 C 9.5 -8.863281 9.90625 -9.25 10.15625 -9.71875 C 10.601562 -10.5625 10.828125 -11.375 10.828125 -12.15625 C 10.828125 -12.539062 10.726562 -13 10.53125 -13.53125 C 10.125 -14.632812 9.296875 -15.351562 8.046875 -15.6875 C 6.835938 -15.6875 5.71875 -15.546875 4.6875 -15.265625 Z M 4.6875 -8.125 "/></g></g></g><g fill="#2b3467" fill-opacity="1"><g transform="translate(127.977061, 243.710257)"><g><path d="M 4.71875 -7.921875 L 4.71875 0 L 2.25 0 L 2.25 -16.59375 L 7.671875 -16.59375 C 9.359375 -16.59375 10.738281 -16.210938 11.8125 -15.453125 C 12.894531 -14.703125 13.4375 -13.710938 13.4375 -12.484375 C 13.4375 -11.265625 13.003906 -10.296875 12.140625 -9.578125 C 11.285156 -8.867188 10.117188 -8.382812 8.640625 -8.125 L 15.359375 0 L 12.453125 0.34375 L 6.640625 -7.921875 Z M 4.71875 -8.671875 L 6.3125 -8.671875 C 9.320312 -8.671875 10.828125 -9.859375 10.828125 -12.234375 C 10.828125 -12.628906 10.726562 -13.078125 10.53125 -13.578125 C 10.144531 -14.628906 9.320312 -15.328125 8.0625 -15.671875 C 6.925781 -15.671875 5.8125 -15.523438 4.71875 -15.234375 Z M 4.71875 -8.671875 "/></g></g></g><g fill="#2b3467" fill-opacity="1"><g transform="translate(143.96195, 243.710257)"><g><path d="M 9.796875 -16.890625 C 11.972656 -16.890625 13.769531 -16.175781 15.1875 -14.75 C 16.601562 -13.320312 17.3125 -11.335938 17.3125 -8.796875 C 17.3125 -7.160156 17.023438 -5.726562 16.453125 -4.5 C 15.890625 -3.269531 15.148438 -2.320312 14.234375 -1.65625 C 12.441406 -0.351562 10.46875 0.296875 8.3125 0.296875 C 6.164062 0.296875 4.382812 -0.421875 2.96875 -1.859375 C 1.5625 -3.304688 0.859375 -5.300781 0.859375 -7.84375 C 0.859375 -9.164062 1.046875 -10.351562 1.421875 -11.40625 C 1.796875 -12.46875 2.285156 -13.332031 2.890625 -14 C 3.503906 -14.675781 4.210938 -15.238281 5.015625 -15.6875 C 6.484375 -16.488281 8.078125 -16.890625 9.796875 -16.890625 Z M 4.765625 -2.859375 C 5.191406 -2.117188 5.773438 -1.546875 6.515625 -1.140625 C 7.253906 -0.734375 8.101562 -0.53125 9.0625 -0.53125 C 10.019531 -0.53125 10.875 -0.769531 11.625 -1.25 C 12.375 -1.738281 12.960938 -2.375 13.390625 -3.15625 C 14.234375 -4.726562 14.65625 -6.414062 14.65625 -8.21875 C 14.65625 -10.4375 14.210938 -12.222656 13.328125 -13.578125 C 12.347656 -15.097656 10.722656 -15.859375 8.453125 -15.859375 C 6.828125 -15.296875 5.597656 -14.320312 4.765625 -12.9375 C 3.929688 -11.550781 3.515625 -9.976562 3.515625 -8.21875 C 3.515625 -6.082031 3.929688 -4.296875 4.765625 -2.859375 Z M 4.765625 -2.859375 "/></g></g></g><g fill="#2b3467" fill-opacity="1"><g transform="translate(162.126606, 243.710257)"><g><path d="M 4.484375 -1.03125 L 4.484375 -16.59375 L 6.96875 -16.59375 L 6.96875 -1.03125 C 6.96875 0.8125 6.398438 2.378906 5.265625 3.671875 C 4.140625 4.960938 2.773438 5.609375 1.171875 5.609375 C 0.328125 5.609375 -0.503906 5.492188 -1.328125 5.265625 L -1.078125 3.3125 C -0.628906 3.613281 -0.0546875 3.875 0.640625 4.09375 C 1.347656 4.320312 1.953125 4.4375 2.453125 4.4375 C 3.023438 4.082031 3.503906 3.382812 3.890625 2.34375 C 4.285156 1.300781 4.484375 0.175781 4.484375 -1.03125 Z M 4.484375 -1.03125 "/></g></g></g><g fill="#2b3467" fill-opacity="1"><g transform="translate(171.872886, 243.710257)"><g><path d="M 2.25 0 L 2.25 -16.59375 L 12.3125 -16.59375 L 12.0625 -14.90625 L 7.390625 -15.6875 C 6.578125 -15.6875 5.675781 -15.546875 4.6875 -15.265625 L 4.6875 -9.171875 L 10.25 -9.171875 L 10.25 -8.21875 L 4.6875 -8.21875 L 4.6875 -0.90625 L 12.453125 -1.671875 L 12.203125 0 Z M 2.25 0 "/></g></g></g><g fill="#2b3467" fill-opacity="1"><g transform="translate(185.953628, 243.710257)"><g><path d="M 9.90625 0.296875 C 7.3125 0.296875 5.128906 -0.398438 3.359375 -1.796875 C 1.585938 -3.203125 0.703125 -5.21875 0.703125 -7.84375 C 0.703125 -9.382812 0.992188 -10.753906 1.578125 -11.953125 C 2.160156 -13.160156 2.929688 -14.101562 3.890625 -14.78125 C 5.804688 -16.1875 7.957031 -16.890625 10.34375 -16.890625 C 11.738281 -16.890625 13.1875 -16.640625 14.6875 -16.140625 L 14.4375 -14.4375 C 13.65625 -14.769531 13.046875 -15.019531 12.609375 -15.1875 C 11.359375 -15.632812 10.097656 -15.859375 8.828125 -15.859375 C 7.066406 -15.460938 5.710938 -14.59375 4.765625 -13.25 C 3.828125 -11.914062 3.359375 -10.25 3.359375 -8.25 C 3.359375 -5.789062 4 -3.894531 5.28125 -2.5625 C 6.570312 -1.238281 8.269531 -0.578125 10.375 -0.578125 C 12.476562 -0.578125 14.050781 -1.03125 15.09375 -1.9375 L 15.09375 -0.546875 C 13.65625 0.015625 11.925781 0.296875 9.90625 0.296875 Z M 9.90625 0.296875 "/></g></g></g><g fill="#2b3467" fill-opacity="1"><g transform="translate(201.788198, 243.710257)"><g><path d="M 7.921875 0 L 5.484375 0 L 5.484375 -15.390625 C 4.921875 -15.523438 4.351562 -15.59375 3.78125 -15.59375 L 0.40625 -14.8125 L 0.25 -16.59375 L 13.15625 -16.59375 L 13.03125 -14.8125 L 9.625 -15.59375 C 9.050781 -15.59375 8.484375 -15.523438 7.921875 -15.390625 Z M 7.921875 0 "/></g></g></g><g fill="#2b3467" fill-opacity="1"><g transform="translate(215.192456, 243.710257)"><g><path d="M 0.40625 0 L 0.40625 -0.25 L 9.96875 -15.265625 C 8.988281 -15.546875 8.082031 -15.6875 7.25 -15.6875 L 2.078125 -14.90625 L 1.828125 -16.59375 L 13.5625 -16.59375 L 13.5625 -16.34375 L 3.6875 -1 L 12.6875 -1.671875 L 12.9375 0 Z M 0.40625 0 "/></g></g></g><g fill="#2b3467" fill-opacity="1"><g transform="translate(229.49868, 243.710257)"><g><path d="M 2.25 0 L 2.25 -16.59375 L 12.3125 -16.59375 L 12.0625 -14.90625 L 7.390625 -15.6875 C 6.578125 -15.6875 5.675781 -15.546875 4.6875 -15.265625 L 4.6875 -9.171875 L 10.25 -9.171875 L 10.25 -8.21875 L 4.6875 -8.21875 L 4.6875 -0.90625 L 12.453125 -1.671875 L 12.203125 0 Z M 2.25 0 "/></g></g></g><g fill="#2b3467" fill-opacity="1"><g transform="translate(243.579421, 243.710257)"><g><path d="M 14.859375 0.28125 L 14.4375 0.28125 L 3.453125 -13.453125 L 3.359375 -13.453125 L 3.359375 0 L 2.25 0 L 2.25 -16.59375 L 4.109375 -16.59375 L 13.65625 -4.53125 L 13.765625 -4.53125 L 13.765625 -16.59375 L 14.859375 -16.59375 Z M 14.859375 0.28125 "/></g></g></g><g fill="#2b3467" fill-opacity="1"><g transform="translate(64.007644, 265.074417)"><g><path d="M 2.578125 -8.6875 C 2.578125 -8.21875 2.757812 -7.785156 3.125 -7.390625 C 3.488281 -6.992188 3.929688 -6.644531 4.453125 -6.34375 C 4.972656 -6.039062 5.492188 -5.734375 6.015625 -5.421875 C 6.535156 -5.109375 6.976562 -4.722656 7.34375 -4.265625 C 7.707031 -3.816406 7.890625 -3.316406 7.890625 -2.765625 C 7.890625 -1.890625 7.566406 -1.175781 6.921875 -0.625 C 6.285156 -0.0820312 5.421875 0.1875 4.328125 0.1875 C 3.242188 0.1875 2.164062 -0.015625 1.09375 -0.421875 L 1.09375 -1.171875 C 2.175781 -0.628906 3.09375 -0.359375 3.84375 -0.359375 C 4.601562 -0.359375 5.191406 -0.539062 5.609375 -0.90625 C 6.035156 -1.28125 6.25 -1.796875 6.25 -2.453125 C 6.25 -2.898438 6.070312 -3.304688 5.71875 -3.671875 C 5.375 -4.035156 4.953125 -4.351562 4.453125 -4.625 C 3.960938 -4.894531 3.46875 -5.171875 2.96875 -5.453125 C 2.46875 -5.742188 2.039062 -6.109375 1.6875 -6.546875 C 1.34375 -6.984375 1.171875 -7.515625 1.171875 -8.140625 C 1.171875 -8.765625 1.445312 -9.347656 2 -9.890625 C 2.5625 -10.429688 3.394531 -10.703125 4.5 -10.703125 C 5.21875 -10.703125 6.125 -10.535156 7.21875 -10.203125 L 7.0625 -9.125 C 5.632812 -9.738281 4.410156 -10.046875 3.390625 -10.046875 C 2.847656 -9.785156 2.578125 -9.332031 2.578125 -8.6875 Z M 2.578125 -8.6875 "/></g></g></g><g fill="#2b3467" fill-opacity="1"><g transform="translate(75.735737, 265.074417)"><g><path d="M 2.890625 -10.515625 L 2.890625 0 L 1.421875 0 L 1.421875 -10.515625 Z M 2.890625 -10.515625 "/></g></g></g><g fill="#2b3467" fill-opacity="1"><g transform="translate(82.957536, 265.074417)"><g><path d="M 7.03125 -2.5 L 10.546875 -10.515625 L 12.15625 -10.515625 L 12.75 0 L 11.125 0 L 10.703125 -9.03125 L 10.640625 -9.03125 L 6.640625 0 L 6.40625 0 L 2.5 -8.671875 L 2.421875 -8.671875 L 2 0 L 1.296875 0 L 1.890625 -10.515625 L 3.359375 -10.515625 Z M 7.03125 -2.5 "/></g></g></g><g fill="#2b3467" fill-opacity="1"><g transform="translate(99.969425, 265.074417)"><g><path d="M 8.5 -7.78125 C 8.5 -6.757812 8.125 -5.988281 7.375 -5.46875 C 6.625 -4.945312 5.609375 -4.6875 4.328125 -4.6875 L 2.96875 -4.6875 L 2.96875 0 L 1.421875 0 L 1.421875 -10.515625 L 4.84375 -10.515625 C 5.90625 -10.515625 6.78125 -10.269531 7.46875 -9.78125 C 8.15625 -9.289062 8.5 -8.625 8.5 -7.78125 Z M 2.96875 -5.140625 L 4.375 -5.140625 C 4.875 -5.140625 5.300781 -5.234375 5.65625 -5.421875 C 6.007812 -5.617188 6.265625 -5.863281 6.421875 -6.15625 C 6.710938 -6.6875 6.859375 -7.203125 6.859375 -7.703125 C 6.859375 -7.941406 6.796875 -8.234375 6.671875 -8.578125 C 6.410156 -9.273438 5.882812 -9.726562 5.09375 -9.9375 C 4.332031 -9.9375 3.625 -9.847656 2.96875 -9.671875 Z M 2.96875 -5.140625 "/></g></g></g><g fill="#2b3467" fill-opacity="1"><g transform="translate(111.538846, 265.074417)"><g><path d="M 1.421875 0 L 1.421875 -10.515625 L 2.984375 -10.515625 L 2.984375 -0.859375 C 3.628906 -0.671875 4.148438 -0.578125 4.546875 -0.578125 L 7.40625 -1.0625 L 7.21875 0 Z M 1.421875 0 "/></g></g></g><g fill="#2b3467" fill-opacity="1"><g transform="translate(122.172106, 265.074417)"><g><path d="M 2.890625 -10.515625 L 2.890625 0 L 1.421875 0 L 1.421875 -10.515625 Z M 2.890625 -10.515625 "/></g></g></g><g fill="#2b3467" fill-opacity="1"><g transform="translate(129.393905, 265.074417)"><g><path d="M 2.96875 -5.8125 L 6.328125 -5.8125 L 6.328125 -5.203125 L 2.96875 -5.203125 L 2.96875 0 L 1.421875 0 L 1.421875 -10.515625 L 7.640625 -10.515625 L 7.640625 -9.453125 L 4.703125 -9.9375 C 4.171875 -9.9375 3.59375 -9.847656 2.96875 -9.671875 Z M 2.96875 -5.8125 "/></g></g></g><g fill="#2b3467" fill-opacity="1"><g transform="translate(139.931962, 265.074417)"><g><path d="M 5.4375 0 L 3.90625 0 L 3.90625 -3.90625 L 0.3125 -10.515625 L 2.046875 -10.515625 L 4.984375 -4.484375 L 7.734375 -10.515625 L 8.53125 -10.515625 L 5.4375 -3.984375 Z M 5.4375 0 "/></g></g></g><g fill="#2b3467" fill-opacity="1"><g transform="translate(151.675928, 265.074417)"><g/></g></g><g fill="#2b3467" fill-opacity="1"><g transform="translate(158.548648, 265.074417)"><g><path d="M 5.4375 0 L 3.90625 0 L 3.90625 -3.90625 L 0.3125 -10.515625 L 2.046875 -10.515625 L 4.984375 -4.484375 L 7.734375 -10.515625 L 8.53125 -10.515625 L 5.4375 -3.984375 Z M 5.4375 0 "/></g></g></g><g fill="#2b3467" fill-opacity="1"><g transform="translate(170.292614, 265.074417)"><g><path d="M 6.203125 -10.703125 C 7.578125 -10.703125 8.710938 -10.25 9.609375 -9.34375 C 10.515625 -8.4375 10.96875 -7.179688 10.96875 -5.578125 C 10.96875 -4.535156 10.785156 -3.625 10.421875 -2.84375 C 10.066406 -2.070312 9.597656 -1.472656 9.015625 -1.046875 C 7.878906 -0.222656 6.628906 0.1875 5.265625 0.1875 C 3.898438 0.1875 2.769531 -0.269531 1.875 -1.1875 C 0.988281 -2.101562 0.546875 -3.363281 0.546875 -4.96875 C 0.546875 -5.800781 0.660156 -6.550781 0.890625 -7.21875 C 1.128906 -7.894531 1.441406 -8.445312 1.828125 -8.875 C 2.210938 -9.300781 2.660156 -9.65625 3.171875 -9.9375 C 4.109375 -10.445312 5.117188 -10.703125 6.203125 -10.703125 Z M 3.015625 -1.8125 C 3.285156 -1.34375 3.65625 -0.976562 4.125 -0.71875 C 4.59375 -0.457031 5.128906 -0.328125 5.734375 -0.328125 C 6.347656 -0.328125 6.890625 -0.476562 7.359375 -0.78125 C 7.835938 -1.09375 8.210938 -1.5 8.484375 -2 C 9.015625 -3 9.28125 -4.066406 9.28125 -5.203125 C 9.28125 -6.609375 9.003906 -7.742188 8.453125 -8.609375 C 7.828125 -9.566406 6.789062 -10.046875 5.34375 -10.046875 C 4.320312 -9.691406 3.546875 -9.070312 3.015625 -8.1875 C 2.484375 -7.3125 2.21875 -6.316406 2.21875 -5.203125 C 2.21875 -3.847656 2.484375 -2.71875 3.015625 -1.8125 Z M 3.015625 -1.8125 "/></g></g></g><g fill="#2b3467" fill-opacity="1"><g transform="translate(184.70227, 265.074417)"><g><path d="M 9.234375 -10.515625 L 9.234375 -4.0625 C 9.234375 -3.082031 9.128906 -2.34375 8.921875 -1.84375 C 8.828125 -1.625 8.675781 -1.375 8.46875 -1.09375 C 8.257812 -0.8125 8.019531 -0.582031 7.75 -0.40625 C 7.050781 -0.0078125 6.175781 0.1875 5.125 0.1875 C 2.5 0.1875 1.1875 -1.160156 1.1875 -3.859375 L 1.1875 -10.515625 L 2.8125 -10.515625 L 2.8125 -3.734375 C 2.8125 -3.421875 2.816406 -3.171875 2.828125 -2.984375 C 2.835938 -2.796875 2.890625 -2.523438 2.984375 -2.171875 C 3.085938 -1.828125 3.226562 -1.546875 3.40625 -1.328125 C 3.582031 -1.117188 3.859375 -0.929688 4.234375 -0.765625 C 4.609375 -0.597656 5.054688 -0.515625 5.578125 -0.515625 C 7.554688 -0.515625 8.546875 -1.570312 8.546875 -3.6875 L 8.546875 -10.515625 Z M 9.234375 -10.515625 "/></g></g></g><g fill="#2b3467" fill-opacity="1"><g transform="translate(198.032965, 265.074417)"><g><path d="M 2.984375 -5.015625 L 2.984375 0 L 1.421875 0 L 1.421875 -10.515625 L 4.859375 -10.515625 C 5.929688 -10.515625 6.804688 -10.273438 7.484375 -9.796875 C 8.171875 -9.316406 8.515625 -8.6875 8.515625 -7.90625 C 8.515625 -7.132812 8.238281 -6.519531 7.6875 -6.0625 C 7.144531 -5.613281 6.410156 -5.304688 5.484375 -5.140625 L 9.734375 0 L 7.890625 0.21875 L 4.203125 -5.015625 Z M 2.984375 -5.5 L 4 -5.5 C 5.90625 -5.5 6.859375 -6.25 6.859375 -7.75 C 6.859375 -8 6.796875 -8.285156 6.671875 -8.609375 C 6.421875 -9.273438 5.898438 -9.710938 5.109375 -9.921875 C 4.390625 -9.921875 3.679688 -9.832031 2.984375 -9.65625 Z M 2.984375 -5.5 "/></g></g></g><g fill="#2b3467" fill-opacity="1"><g transform="translate(211.062177, 265.074417)"><g/></g></g><g fill="#2b3467" fill-opacity="1"><g transform="translate(217.934891, 265.074417)"><g><path d="M 8.5 -7.78125 C 8.5 -6.757812 8.125 -5.988281 7.375 -5.46875 C 6.625 -4.945312 5.609375 -4.6875 4.328125 -4.6875 L 2.96875 -4.6875 L 2.96875 0 L 1.421875 0 L 1.421875 -10.515625 L 4.84375 -10.515625 C 5.90625 -10.515625 6.78125 -10.269531 7.46875 -9.78125 C 8.15625 -9.289062 8.5 -8.625 8.5 -7.78125 Z M 2.96875 -5.140625 L 4.375 -5.140625 C 4.875 -5.140625 5.300781 -5.234375 5.65625 -5.421875 C 6.007812 -5.617188 6.265625 -5.863281 6.421875 -6.15625 C 6.710938 -6.6875 6.859375 -7.203125 6.859375 -7.703125 C 6.859375 -7.941406 6.796875 -8.234375 6.671875 -8.578125 C 6.410156 -9.273438 5.882812 -9.726562 5.09375 -9.9375 C 4.332031 -9.9375 3.625 -9.847656 2.96875 -9.671875 Z M 2.96875 -5.140625 "/></g></g></g><g fill="#2b3467" fill-opacity="1"><g transform="translate(229.504307, 265.074417)"><g><path d="M 2.984375 -5.015625 L 2.984375 0 L 1.421875 0 L 1.421875 -10.515625 L 4.859375 -10.515625 C 5.929688 -10.515625 6.804688 -10.273438 7.484375 -9.796875 C 8.171875 -9.316406 8.515625 -8.6875 8.515625 -7.90625 C 8.515625 -7.132812 8.238281 -6.519531 7.6875 -6.0625 C 7.144531 -5.613281 6.410156 -5.304688 5.484375 -5.140625 L 9.734375 0 L 7.890625 0.21875 L 4.203125 -5.015625 Z M 2.984375 -5.5 L 4 -5.5 C 5.90625 -5.5 6.859375 -6.25 6.859375 -7.75 C 6.859375 -8 6.796875 -8.285156 6.671875 -8.609375 C 6.421875 -9.273438 5.898438 -9.710938 5.109375 -9.921875 C 4.390625 -9.921875 3.679688 -9.832031 2.984375 -9.65625 Z M 2.984375 -5.5 "/></g></g></g><g fill="#2b3467" fill-opacity="1"><g transform="translate(242.533519, 265.074417)"><g><path d="M 6.203125 -10.703125 C 7.578125 -10.703125 8.710938 -10.25 9.609375 -9.34375 C 10.515625 -8.4375 10.96875 -7.179688 10.96875 -5.578125 C 10.96875 -4.535156 10.785156 -3.625 10.421875 -2.84375 C 10.066406 -2.070312 9.597656 -1.472656 9.015625 -1.046875 C 7.878906 -0.222656 6.628906 0.1875 5.265625 0.1875 C 3.898438 0.1875 2.769531 -0.269531 1.875 -1.1875 C 0.988281 -2.101562 0.546875 -3.363281 0.546875 -4.96875 C 0.546875 -5.800781 0.660156 -6.550781 0.890625 -7.21875 C 1.128906 -7.894531 1.441406 -8.445312 1.828125 -8.875 C 2.210938 -9.300781 2.660156 -9.65625 3.171875 -9.9375 C 4.109375 -10.445312 5.117188 -10.703125 6.203125 -10.703125 Z M 3.015625 -1.8125 C 3.285156 -1.34375 3.65625 -0.976562 4.125 -0.71875 C 4.59375 -0.457031 5.128906 -0.328125 5.734375 -0.328125 C 6.347656 -0.328125 6.890625 -0.476562 7.359375 -0.78125 C 7.835938 -1.09375 8.210938 -1.5 8.484375 -2 C 9.015625 -3 9.28125 -4.066406 9.28125 -5.203125 C 9.28125 -6.609375 9.003906 -7.742188 8.453125 -8.609375 C 7.828125 -9.566406 6.789062 -10.046875 5.34375 -10.046875 C 4.320312 -9.691406 3.546875 -9.070312 3.015625 -8.1875 C 2.484375 -7.3125 2.21875 -6.316406 2.21875 -5.203125 C 2.21875 -3.847656 2.484375 -2.71875 3.015625 -1.8125 Z M 3.015625 -1.8125 "/></g></g></g><g fill="#2b3467" fill-opacity="1"><g transform="translate(256.943186, 265.074417)"><g><path d="M 2.84375 -0.65625 L 2.84375 -10.515625 L 4.40625 -10.515625 L 4.40625 -0.65625 C 4.40625 0.507812 4.046875 1.503906 3.328125 2.328125 C 2.617188 3.148438 1.757812 3.5625 0.75 3.5625 C 0.207031 3.5625 -0.320312 3.484375 -0.84375 3.328125 L -0.6875 2.09375 C -0.394531 2.28125 -0.03125 2.445312 0.40625 2.59375 C 0.851562 2.738281 1.238281 2.8125 1.5625 2.8125 C 1.914062 2.582031 2.21875 2.132812 2.46875 1.46875 C 2.71875 0.8125 2.84375 0.101562 2.84375 -0.65625 Z M 2.84375 -0.65625 "/></g></g></g><g fill="#2b3467" fill-opacity="1"><g transform="translate(266.021463, 265.074417)"><g><path d="M 1.421875 0 L 1.421875 -10.515625 L 7.796875 -10.515625 L 7.640625 -9.453125 L 4.6875 -9.9375 C 4.164062 -9.9375 3.59375 -9.847656 2.96875 -9.671875 L 2.96875 -5.8125 L 6.5 -5.8125 L 6.5 -5.203125 L 2.96875 -5.203125 L 2.96875 -0.578125 L 7.890625 -1.0625 L 7.734375 0 Z M 1.421875 0 "/></g></g></g><g fill="#2b3467" fill-opacity="1"><g transform="translate(277.844765, 265.074417)"><g><path d="M 6.265625 0.1875 C 4.628906 0.1875 3.25 -0.253906 2.125 -1.140625 C 1 -2.023438 0.4375 -3.300781 0.4375 -4.96875 C 0.4375 -5.9375 0.625 -6.800781 1 -7.5625 C 1.375 -8.332031 1.859375 -8.929688 2.453125 -9.359375 C 3.671875 -10.253906 5.039062 -10.703125 6.5625 -10.703125 C 7.4375 -10.703125 8.347656 -10.539062 9.296875 -10.21875 L 9.140625 -9.140625 C 8.640625 -9.359375 8.253906 -9.519531 7.984375 -9.625 C 7.191406 -9.90625 6.394531 -10.046875 5.59375 -10.046875 C 4.476562 -9.796875 3.617188 -9.242188 3.015625 -8.390625 C 2.421875 -7.546875 2.125 -6.488281 2.125 -5.21875 C 2.125 -3.664062 2.53125 -2.46875 3.34375 -1.625 C 4.164062 -0.78125 5.242188 -0.359375 6.578125 -0.359375 C 7.910156 -0.359375 8.90625 -0.644531 9.5625 -1.21875 L 9.5625 -0.34375 C 8.644531 0.0078125 7.546875 0.1875 6.265625 0.1875 Z M 6.265625 0.1875 "/></g></g></g><g fill="#2b3467" fill-opacity="1"><g transform="translate(290.778763, 265.074417)"><g><path d="M 5.015625 0 L 3.484375 0 L 3.484375 -9.75 C 3.117188 -9.832031 2.753906 -9.875 2.390625 -9.875 L 0.25 -9.375 L 0.15625 -10.515625 L 8.328125 -10.515625 L 8.25 -9.375 L 6.09375 -9.875 C 5.738281 -9.875 5.378906 -9.832031 5.015625 -9.75 Z M 5.015625 0 "/></g></g></g><g fill="#2b3467" fill-opacity="1"><g transform="translate(302.173644, 265.074417)"><g><path d="M 2.578125 -8.6875 C 2.578125 -8.21875 2.757812 -7.785156 3.125 -7.390625 C 3.488281 -6.992188 3.929688 -6.644531 4.453125 -6.34375 C 4.972656 -6.039062 5.492188 -5.734375 6.015625 -5.421875 C 6.535156 -5.109375 6.976562 -4.722656 7.34375 -4.265625 C 7.707031 -3.816406 7.890625 -3.316406 7.890625 -2.765625 C 7.890625 -1.890625 7.566406 -1.175781 6.921875 -0.625 C 6.285156 -0.0820312 5.421875 0.1875 4.328125 0.1875 C 3.242188 0.1875 2.164062 -0.015625 1.09375 -0.421875 L 1.09375 -1.171875 C 2.175781 -0.628906 3.09375 -0.359375 3.84375 -0.359375 C 4.601562 -0.359375 5.191406 -0.539062 5.609375 -0.90625 C 6.035156 -1.28125 6.25 -1.796875 6.25 -2.453125 C 6.25 -2.898438 6.070312 -3.304688 5.71875 -3.671875 C 5.375 -4.035156 4.953125 -4.351562 4.453125 -4.625 C 3.960938 -4.894531 3.46875 -5.171875 2.96875 -5.453125 C 2.46875 -5.742188 2.039062 -6.109375 1.6875 -6.546875 C 1.34375 -6.984375 1.171875 -7.515625 1.171875 -8.140625 C 1.171875 -8.765625 1.445312 -9.347656 2 -9.890625 C 2.5625 -10.429688 3.394531 -10.703125 4.5 -10.703125 C 5.21875 -10.703125 6.125 -10.535156 7.21875 -10.203125 L 7.0625 -9.125 C 5.632812 -9.738281 4.410156 -10.046875 3.390625 -10.046875 C 2.847656 -9.785156 2.578125 -9.332031 2.578125 -8.6875 Z M 2.578125 -8.6875 "/></g></g></g></svg>